Coordinates
version=1
nRows=15
nColumns=19
inDegrees=yes

Units are S.I. units (second, meters, Newtons, ...)
If the header above contains a line with 'inDegrees', this indicates whether rotational values are in degrees (yes) or radians (no).

endheader
time	pelvis_tilt	pelvis_list	pelvis_rotation	pelvis_tx	pelvis_ty	pelvis_tz	hip_flexion_r	hip_adduction_r	hip_rotation_r	knee_angle_r	knee_angle_r_beta	ankle_angle_r	hip_flexion_l	hip_adduction_l	hip_rotation_l	knee_angle_l	knee_angle_l_beta	ankle_angle_l
     13.09333333	     -1.23482716	      7.29645875	      2.28718915	      2.37010047	      0.95924734	      1.00019132	     -8.73952007	    -11.85581000	    -15.04435824	     72.12322813	      1.25878780	     -5.25087459	     19.02164291	      9.99257852	     -0.24461580	     17.89028430	      0.31224437	      5.23411531
     13.10000000	     -1.21681329	      7.71550355	      2.81250970	      2.36830883	      0.95326957	      0.99861276	     -7.44455368	    -12.33362690	    -14.59944827	     76.02378794	      1.32686541	     -4.50377514	     19.91389239	     10.42972849	     -1.08141518	     21.38176609	      0.37318222	      5.63180604
     13.10666667	     -0.31297201	      8.41406846	      3.36841299	      2.36651644	      0.94803883	      0.99718757	     -7.25971979	    -13.05231452	    -14.44293925	     79.64776544	      1.39011575	     -3.74041230	     19.69621837	     11.16176896	     -1.63383885	     24.65710223	      0.43034762	      6.27446056
     13.11333333	     -0.30462279	      8.67864262	      3.89442060	      2.36427194	      0.94185151	      0.99598728	     -5.80705533	    -13.18571614	    -13.78336400	     83.32386989	      1.45427588	     -3.03760307	     20.59983992	     11.43522900	     -2.07697938	     28.26770254	      0.49336448	      7.31585446
     13.12000000	      0.47725403	      9.17975523	      4.36855189	      2.36198005	      0.93659303	      0.99500773	     -5.28823887	    -13.56022196	    -13.35250083	     86.71892411	      1.51353075	     -2.27573991	     20.45556973	     11.95333421	     -2.25058054	     31.50445867	      0.54985653	      8.56874408
     13.12666667	      0.53256733	      9.35703736	      4.79939118	      2.35940376	      0.93082597	      0.99426252	     -3.72441448	    -13.51785961	    -12.55613381	     90.08166339	      1.57222162	     -1.71273109	     21.08494201	     12.16155989	     -2.31359566	     34.72529206	      0.60607068	     10.14262240
     13.13333333	      0.95356635	      9.60315600	      5.11210716	      2.35676549	      0.92583377	      0.99376749	     -2.52702347	    -13.53247113	    -11.77286379	     93.19402387	      1.62654256	     -1.13997311	     21.11235774	     12.42502989	     -2.24385379	     37.55525963	      0.65546293	     11.84275919
     13.14000000	      1.74955757	      9.96987606	      5.35287495	      2.35414271	      0.92171025	      0.99341636	     -1.74907087	    -13.68970043	    -11.07343345	     96.03859584	      1.67618971	     -0.60115784	     20.47998832	     12.80484400	     -2.04910593	     39.93507546	      0.69699855	     13.67305317
     13.14666667	      2.43301886	     10.22042515	      5.47296809	      2.35140186	      0.91808299	      0.99336210	     -0.70504698	    -13.74151573	    -10.27115740	     98.68023971	      1.72229509	     -0.18439494	     19.79270611	     13.04651831	     -1.80110408	     41.96286921	      0.73239023	     15.51128397
     13.15333333	      1.99043999	      9.99439577	      5.29449411	      2.34853501	      0.91391878	      0.99368552	      2.00466628	    -13.15604957	     -8.71584856	    101.29023205	      1.76784805	      0.16888854	     20.28060988	     12.72939784	     -1.90208202	     43.82446096	      0.76488114	     17.19181012
     13.16000000	      2.32991012	     10.05003239	      5.04795892	      2.34588170	      0.91123518	      0.99412244	      3.72640298	    -12.92994858	     -7.46489269	    103.49462381	      1.80632194	      0.45753216	     19.57528958	     12.66134120	     -1.91617279	     45.08285767	      0.78684430	     18.83254290
     13.16666667	      2.48202989	     10.05075624	      4.69709164	      2.34339591	      0.90901731	      0.99469727	      5.73060586	    -12.63762219	     -6.11826918	    105.44469739	      1.84035715	      0.68652377	     18.86993040	     12.51917295	     -1.99898830	     45.96699818	      0.80227547	     20.28991452
     13.17333333	      2.79263227	     10.04467456	      4.31975615	      2.34113144	      0.90765403	      0.99525437	      7.51913285	    -12.36890281	     -4.89763280	    107.03881578	      1.86817976	      0.92936883	     17.75894697	     12.38725679	     -2.01165861	     46.44456210	      0.81061053	     21.64003586
     13.18000000	      2.65348309	      9.95793101	      3.72428944	      2.33905175	      0.90643581	      0.99605729	      9.94465429	    -11.93586134	     -3.38144275	    108.42514485	      1.89237577	      1.04262883	     17.00429583	     12.08820267	     -2.38157374	     46.64906416	      0.81417976	     22.64548017
     13.18666667	      2.68534762	      9.86301889	      3.15874132	      2.33729665	      0.90604392	      0.99675613	     12.06804359	    -11.53297883	     -2.08653819	    109.42476339	      1.90982240	      1.20746329	     15.86078384	     11.82603554	     -2.64070987	     46.51456981	      0.81183239	     23.50765526
